<?xml version="1.0" encoding="utf-8"?>
<!-- Generator: Adobe Illustrator 28.0.0, SVG Export Plug-In . SVG Version: 6.00 Build 0)  -->
<svg version="1.1" id="Layer_1" xmlns="http://www.w3.org/2000/svg" xmlns:xlink="http://www.w3.org/1999/xlink" x="0px" y="0px"
	 viewBox="0 0 1920 1080" style="enable-background:new 0 0 1920 1080;" xml:space="preserve">
<style type="text/css">
	.st0{fill:#FFFFFF;}
	.st1{fill:none;stroke:#000000;stroke-width:4;stroke-miterlimit:10;}
</style>
<g>
	<path class="st0" d="M936,1030c-68.72,0-135.39-12.96-198.15-38.52c-60.61-24.68-115.05-60.02-161.79-105.03
		c-46.74-45-83.44-97.41-109.07-155.75C440.45,670.3,427,606.14,427,540c0-66.14,13.45-130.3,39.99-190.7
		c25.63-58.35,62.33-110.75,109.07-155.75c46.75-45.01,101.18-80.34,161.79-105.03C800.61,62.96,867.28,50,936,50
		s135.39,12.96,198.15,38.52c60.61,24.68,115.05,60.02,161.79,105.03c46.74,45,83.44,97.41,109.07,155.75
		C1431.55,409.7,1445,473.86,1445,540c0,66.14-13.45,130.3-39.99,190.7c-25.63,58.35-62.33,110.75-109.07,155.75
		c-46.75,45.01-101.18,80.34-161.79,105.03C1071.39,1017.04,1004.72,1030,936,1030z"/>
	<path d="M936,52c68.46,0,134.88,12.91,197.4,38.37c60.38,24.59,114.6,59.79,161.16,104.62c46.55,44.82,83.1,97.01,108.62,155.12
		C1429.6,410.25,1443,474.14,1443,540s-13.4,129.75-39.82,189.9c-25.53,58.11-62.07,110.29-108.62,155.12
		c-46.56,44.83-100.78,80.03-161.16,104.62c-62.52,25.46-128.93,38.37-197.4,38.37s-134.88-12.91-197.4-38.37
		c-60.38-24.59-114.6-59.79-161.16-104.62c-46.55-44.82-83.1-97.01-108.62-155.12C442.4,669.75,429,605.86,429,540
		s13.4-129.75,39.82-189.9c25.53-58.11,62.07-110.29,108.62-155.12C624,150.15,678.23,114.96,738.6,90.37
		C801.12,64.91,867.54,52,936,52 M936,48c-282.22,0-511,220.28-511,492s228.78,492,511,492s511-220.28,511-492S1218.22,48,936,48
		L936,48z"/>
</g>
<g>
	<ellipse cx="756.12" cy="385.2" rx="52.12" ry="50.11"/>
	<path d="M756.12,337.08c27.64,0,50.12,21.58,50.12,48.11s-22.49,48.11-50.12,48.11s-50.12-21.58-50.12-48.11
		S728.48,337.08,756.12,337.08 M756.12,333.08c-29.89,0-54.12,23.33-54.12,52.11c0,28.78,24.23,52.11,54.12,52.11
		c29.89,0,54.12-23.33,54.12-52.11C810.24,356.42,786.01,333.08,756.12,333.08L756.12,333.08z"/>
</g>
<g>
	<path d="M1119.07,435.31c-28.74,0-52.12-22.48-52.12-50.11s23.38-50.11,52.12-50.11c28.74,0,52.12,22.48,52.12,50.11
		S1147.81,435.31,1119.07,435.31z"/>
	<path d="M1119.07,337.08c27.64,0,50.12,21.58,50.12,48.11s-22.49,48.11-50.12,48.11s-50.12-21.58-50.12-48.11
		S1091.43,337.08,1119.07,337.08 M1119.07,333.08c-29.89,0-54.12,23.33-54.12,52.11c0,28.78,24.23,52.11,54.12,52.11
		c29.89,0,54.12-23.33,54.12-52.11C1173.19,356.42,1148.96,333.08,1119.07,333.08L1119.07,333.08z"/>
</g>
<path class="st1" d="M667.45,537.24c6.85,48.8,27.94,95.31,60.36,133.37c32,37.57,74.55,66.44,122.11,82.62
	c49.36,16.78,103.53,19.67,154.53,8.39c49.07-10.86,94.61-34.86,130.74-68.64c36.18-33.84,62.49-77.07,75.24-124.11
	c1.6-5.9,2.99-11.85,4.16-17.84"/>
</svg>
